# xmcd
#
# Track frame offsets:
#	150
#	16265
#	30221
#	49897
#	68374
#	86542
#	102383
#	119178
#	133654
#	150956
#	170300
#	186086
#	199471
#	216149
#	230572
#	250115
#	265302
#	279354
#	295352
#	318636
#
# Disc length: 4401 seconds
#
# Revision: 1
# Processed by: cddbd v1.4PL0 Copyright (c) Steve Scherf et al.
# Submitted via: audiograbber 1.80
#
DISCID=1e112f14
DTITLE=Various Artist - Hott Country 022
DYEAR=1900
DGENRE=
TTITLE0=Shania Twain - Love Gets Me Every Time
TTITLE1=Wynonna - When Love Starts Talking
TTITLE2=Alan Jackson - Between The Devil And Me
TTITLE3=Patty Loveless - You Don't Seem To Miss Me
TTITLE4=Toby Keith - I'm So Happy I Can't Stop Crying
TTITLE5=John Michael Montgomery - Angel In My Eyes
TTITLE6=Alaabama - Of Course I'm Alright
TTITLE7=Mindy McCready - What If I Do
TTITLE8=Sherrie Austin - One Solitary Tear
TTITLE9=Lila McCann - I Wanna Fall In Love
TTITLE10=Diamond Rio - Imagine That
TTITLE11=Tracy Byrd - Good Ol'Fashion Love
TTITLE12=Kenny Chesney - A Chance
TTITLE13=Rhett Akins - More Than Everything
TTITLE14=Blackhawk - Postmarked Birmingham
TTITLE15=Paul Brandt - A Little In Love
TTITLE16=Great Big Sea - Ordinary Day
TTITLE17=Lee Ann Womack - You've Got To Talk To Me
TTITLE18=SCooter Lee - Sexy Little Christmas Thing
TTITLE19=Data - Data Track
EXTD=
EXTT0=
EXTT1=
EXTT2=
EXTT3=
EXTT4=
EXTT5=
EXTT6=
EXTT7=
EXTT8=
EXTT9=
EXTT10=
EXTT11=
EXTT12=
EXTT13=
EXTT14=
EXTT15=
EXTT16=
EXTT17=
EXTT18=
EXTT19=
PLAYORDER=
